# xmcd
#
# Track frame offsets: 
#        150
#        21605
#        43655
#        63107
#        90935
#        117545
#        140760
#        162645
#        186417
#        199675
#        217327
#        238277
#
# Disc length: 3491 seconds
#
# Revision: 3
# Processed by: cddbd v1.5.2PL0 Copyright (c) Steve Scherf et al.
# Submitted via: ExactAudioCopy v0.99pb3
#
DISCID=bf0da10c
DTITLE=Cameo - The Ballads Collection
DYEAR=1998
DGENRE=Soul
TTITLE0=Why Have I Lost You? (version 1)
TTITLE1=Sparkle
TTITLE2=It's Over
TTITLE3=Feel Me
TTITLE4=We All Know Who We Are
TTITLE5=Hanging Downtown
TTITLE6=Love You Anyway
TTITLE7=Don't Be Lonely
TTITLE8=I Owe It All To You
TTITLE9=I'll Always Stay
TTITLE10=I Never Knew
TTITLE11=Why Have I Lost You? (version 2)
EXTD=Funk Essentials\nLarry Blackmon
EXTT0=
EXTT1=
EXTT2=
EXTT3=
EXTT4=
EXTT5=
EXTT6=
EXTT7=
EXTT8=
EXTT9=
EXTT10=
EXTT11=
PLAYORDER=
